{"title":"The.Hunger.Games.Mockingjay.Part.2.2015.BRRip.720p-PRiSiSTiNE","uid":13887853,"size":907465895,"categoryP":"video","categoryS":"hd___movies","magnet":"?xt=urn:btih:445d1c83619750b2495bd791d05aad5c9242ddff&amp;dn=The.Hunger.Games.Mockingjay.Part.2.2015.BRRip.720p-PRiSiSTiNE&amp;tr=udp%3A%2F%2Ftracker.leechers-paradise.org%3A6969&amp;tr=udp%3A%2F%2Fzer0day.ch%3A1337&amp;tr=udp%3A%2F%2Fopen.demonii.com%3A1337&amp;tr=udp%3A%2F%2Ftracker.coppersurfer.tk%3A6969&amp;tr=udp%3A%2F%2Fexodus.desync.com%3A6969","seeders":18,"leechers":13,"uploader":"VYTOP2PDL","files":7,"time":1458191048,"description":"____    ____ ____    ____ .___________.  ______   \r\n     /   /      /   / |           | /  __    \r\n    /   /      /   /  `---|  |----`|  |  |  | \r\n        /     _    _/       |  |     |  |  |  | \r\n       /        |  |         |  |     |  `--'  | \r\n    __/         |__|         |__|      ______/  \r\n                                                  \r\nPresenting Small Encodes with quality for years!\r\n                                                                                                   \r\n                                                                                                   \r\n\r\n\r\nThe.Hunger.Games.Mockingjay.Part.2.2015.BRRip.720p.x264.AAC-PRiSTiNE\r\n\r\n\r\nGenre: Adventure, Sci-Fi \nhttp://www.imdb.com/title/tt1951266/\r\n\r\n\r\nFormat                                   : MPEG-4\r\nFile size                                : 852 MiB\r\nDuration                                 : 2h 16mn\r\nOverall bit rate                         : 870 Kbps\r\n\r\nVideo\r\nFormat                                   : AVC\r\nBit rate                                 : 787 Kbps\r\nWidth                                    : 1 264 pixels\r\nHeight                                   : 528 pixels\r\nDisplay aspect ratio                     : 2.40:1\r\nFrame rate mode                          : Constant\r\nFrame rate                               : 23.976 fps\r\nBit depth                                : 8 bits\r\nStream size                              : 771 MiB (90%)\r\nWriting library                          : x264\r\n\r\nAudio\r\nFormat                                   : AAC\r\nBit rate mode                            : Variable\r\nBit rate                                 : 80.0 Kbps\r\nChannel(s)                               : 2 channels\r\nChannel positions                        : Front: L R\r\nSampling rate                            : 48.0 KHz\r\nStream size                              : 78.4 MiB (9%)\r\nLanguage                                 : English\r\n\r\nSubtitle                                 : Yes (English)\r\n\r\nScreen Shots: (Click to view)\r\n \nhttp://ititli.com/Xj4 \nhttp://ititli.com/XjK \nhttp://ititli.com/XjV \nhttp://ititli.com/Xjt \nhttp://ititli.com/XjL \nhttp://ititli.com/Xjd \nhttp://ititli.com/Xj0 \nhttp://ititli.com/XjA \nhttp://ititli.com/Xjl \nhttp://ititli.com/Xjm \nhttp://ititli.com/Xjx \nhttp://ititli.com/Xj7\r\n\r\n----------------------------------------------------------------------------------------------------\r\n\r\n\r\nEncoder Notes: Looking For Early Access To Anything You Can Provide WEBDL, DVDScr, DVDR, BluRay,\r\nDirect Audio, Music Releases and Seedboxes. If You Got anything to offer please contact us.\r\n\r\nSupport us by donating BC - 1FgwdzPsd1y25Gea8wP1qni35uGCtmkRCD\r\n\r\nFind us and join us!","torrent":{"xt":"urn:btih:445d1c83619750b2495bd791d05aad5c9242ddff","amp;dn":"The.Hunger.Games.Mockingjay.Part.2.2015.BRRip.720p-PRiSiSTiNE","amp;tr":["udp%3A%2F%2Ftracker.leechers-paradise.org%3A6969","udp%3A%2F%2Fzer0day.ch%3A1337","udp%3A%2F%2Fopen.demonii.com%3A1337","udp%3A%2F%2Ftracker.coppersurfer.tk%3A6969","udp%3A%2F%2Fexodus.desync.com%3A6969"],"infoHash":"445d1c83619750b2495bd791d05aad5c9242ddff","infoHashBuffer":{"type":"Buffer","data":[68,93,28,131,97,151,80,178,73,91,215,145,208,90,173,92,146,66,221,255]},"announce":[],"urlList":[]}}